<svg width="118" height="41" viewBox="0 0 118 41" version="1.1" xmlns="http://www.w3.org/2000/svg" xmlns:xlink="http://www.w3.org/1999/xlink"><defs><path id="path-1" d="M.223.17h14.483v22.043H.223z"/><path id="path-3" d="M.283.255h5.122v6.46H.283z"/><path id="path-5" d="M.077.255H5.2v6.46H.077z"/></defs><g id="last----new" stroke="none" stroke-width="1" fill="none" fill-rule="evenodd"><g id="Index-" transform="translate(-30 -43)"><g id="Group-18" transform="translate(0 -2586)"><g id="Group-104"><g id="Group-52" transform="translate(0 2611)"><g id="logo" transform="translate(30 18)"><g id="Group-52"><path id="Fill-1" fill="#020000" d="M.168 29.19h117.337v-.908H.168z"/><path id="Fill-2" fill="#020000" d="M17.965 5.168h2.067V1.543h-2.067z"/><path id="Fill-3" fill="#020000" d="M17.965 22.27h2.067V7.372h-2.067z"/><g id="Group-51" transform="translate(0 .183)"><g id="Group-6" transform="translate(84.485)"><mask id="mask-2" fill="#fff"><use xlink:href="#path-1"/></mask><path d="M12.64 19.87c-.872.108-2.916.324-4.96.275-3.323-.084-5.393-2.349-5.393-5.909 0-3.678 2.216-6.248 5.38-6.248 1.865 0 3.108.52 4.163 1.732.75.873.81 1.715.81 2.723v7.428zm0-12.236c-.948-.821-2.421-1.715-4.994-1.715-4.371 0-7.423 3.42-7.423 8.317 0 4.77 2.983 7.977 7.423 7.977 3.264 0 5.506-.125 5.5-.125h1.56V.17H12.64v7.464z" id="Fill-4" fill="#020000" mask="url(#mask-2)"/></g><path d="M110.476 7.988c3.695 0 4.845 3.154 5.08 4.663h-10.69c.278-1.758 1.834-4.663 5.61-4.663zm4.867 9.702c-.705 1.418-2.019 2.821-4.867 2.821-4.763 0-5.553-3.94-5.666-5.79h12.862v-.514c0-3.823-1.884-8.288-7.196-8.288-4.561 0-7.743 3.35-7.743 8.143 0 5.254 2.966 8.517 7.743 8.517 4.92 0 6.458-3.244 7.07-4.889h-2.203z" id="Fill-7" fill="#020000"/><path d="M7.025 20.146a31.1 31.1 0 01-.626.007h-.003c-1.811 0-3.547-.186-4.327-.282v-7.428c0-1.01.059-1.852.808-2.721.745-.858 1.822-1.734 4.162-1.734 3.166 0 5.38 2.57 5.38 6.248 0 3.56-2.065 5.824-5.394 5.91M7.06 5.919c-2.576 0-4.047.894-4.991 1.715V.17H0v21.918h1.532c.022 0 2.264.126 5.528.126 4.443 0 7.429-3.208 7.429-7.978 0-4.896-3.057-8.317-7.43-8.317" id="Fill-9" fill="#020000"/><path d="M31.346 20.51c-3.45 0-5.677-2.462-5.677-6.274 0-3.795 2.227-6.248 5.677-6.248 3.437 0 5.655 2.453 5.655 6.248 0 3.812-2.218 6.275-5.655 6.275m0-14.592c-4.63 0-7.743 3.342-7.743 8.317 0 4.99 3.112 8.343 7.743 8.343 4.619 0 7.722-3.352 7.722-8.343 0-5.051-3.032-8.317-7.722-8.317" id="Fill-11" fill="#020000"/><path d="M78.676 15.102c0 2.2-.14 3.32-1.438 4.091-1.597.937-2.911 1.318-4.537 1.318-2.062 0-4.148-1.192-4.148-3.473 0-1.251.846-2.509 1.93-2.863 2.8-.916 5.511-.984 7.69-1.041l.503-.013v1.981zm2.065 4.564v-8.118c0-3.997-1.92-5.629-6.625-5.629-3.44 0-5.55 1.284-6.502 2.048l-.308.25.817 1.843.499-.339c.768-.52 2.854-1.733 5.583-1.733 1.347 0 4.47.282 4.47 2.896v.182c-.302.015-.658.03-1.046.047-2.377.096-5.97.243-8.093 1.146-1.798.77-2.96 2.703-2.96 4.924 0 3.177 2.528 5.395 6.147 5.395 2.891 0 4.698-.978 5.95-2.053.039.307.114.581.226.776.301.555.573.787 1.471.787h1.718v-1.983l-1.297.05c-.05-.082-.05-.378-.05-.489z" id="Fill-13" fill="#020000"/><path d="M58.554 7.66V6.41h-2.067v15.678h2.067v-8.662c0-2.302.095-2.913 1.126-4.137.747-.85 2.05-1.3 3.776-1.3h.508v-2.07H62.84a6.03 6.03 0 00-4.285 1.742" id="Fill-15" fill="#020000"/><path d="M45.756 2.454h-2.04v3.692h-2.04v1.756h2.04v9.232c0 3.317 1.515 4.852 4.791 4.852 1.146 0 2.258-.095 3.373-.378v-1.501a40.131 40.131 0 01-3.373.125c-2.227 0-2.751-1.41-2.751-3.412V7.902h6.124V6.146h-6.124V2.454z" id="Fill-17" fill="#020000"/><path d="M85.722 31.714h-.62a.119.119 0 00-.119.12v.983c0 .066.054.123.12.123h.619a.123.123 0 00.118-.123v-.983a.119.119 0 00-.118-.12" id="Fill-19" fill="#020000"/><path d="M85.113 40.563h.585c.062 0 .116-.057.116-.12v-6.05a.12.12 0 00-.116-.12h-.585a.12.12 0 00-.118.12v6.05c0 .064.054.12.118.12" id="Fill-21" fill="#020000"/><path d="M80.082 40.49v-.418c0-.02 0-.045-.13-.045h-.988c-.692 0-1.024-.145-1.024-.963v-4.182h2.022c.062 0 .108-.04.108-.096v-.418c0-.083-.067-.095-.108-.095H77.94V32.84c0-.052-.03-.107-.08-.107l-.599.099c-.065.012-.139.05-.139.109v6.122c0 1.14.471 1.582 1.675 1.582.44 0 .928-.034 1.146-.07.14-.018.14-.054.14-.086" id="Fill-23" fill="#020000"/><g id="Group-27" transform="translate(57.604 33.931)"><mask id="mask-4" fill="#fff"><use xlink:href="#path-3"/></mask><path d="M1.102 2.896c0-1.7.956-1.945 1.753-1.945 1.186 0 1.718.52 1.718 1.945v.237h-3.47v-.237zM5.21 6.351v-.42c0-.014 0-.045-.07-.045h-.06c-.506.08-1.403.135-2.165.135-1.252 0-1.813-.544-1.813-2.018v-.3h4.196c.073 0 .107-.048.107-.143v-.664c0-1.75-.928-2.64-2.55-2.64-1.634 0-2.572.89-2.572 2.64v1.107c0 2.337 1.43 2.713 2.632 2.713.76 0 1.421-.063 2.154-.204.136-.028.14-.061.14-.16z" id="Fill-25" fill="#020000" mask="url(#mask-4)"/></g><path d="M69.956 40.647h.11c.396 0 2.377-.02 2.377-2.653v-3.601c0-.056-.022-.12-.093-.12h-.633c-.07 0-.093.064-.093.12v3.601c0 1.374-.525 1.958-1.559 1.958h-.109c-1.034 0-1.558-.584-1.558-1.958v-3.601c0-.056-.024-.12-.095-.12h-.631c-.066 0-.098.061-.098.12v3.601c0 2.633 1.983 2.653 2.382 2.653" id="Fill-28" fill="#020000"/><path d="M94.844 40.368v-.444c0-.049-.048-.059-.085-.059h-.047c-.559.066-.942.087-1.51.087-.746 0-1.64-.264-1.64-2.055v-.96c0-1.793.894-2.055 1.64-2.055.568 0 .951.021 1.524.088l.033-.001c.037 0 .085-.01.085-.059v-.443c0-.103 0-.119-.146-.146a8.636 8.636 0 00-1.495-.134c-1.54 0-2.461.957-2.461 2.75v.96c0 1.791.921 2.75 2.46 2.75.68 0 1.229-.081 1.496-.133.146-.027.146-.053.146-.146" id="Fill-30" fill="#020000"/><path d="M108.179 40.563h.63c.067 0 .097-.073.097-.12v-8.549c0-.063-.038-.106-.096-.106h-.631c-.075 0-.093.067-.093.106v8.549c0 .064.042.12.093.12" id="Fill-32" fill="#020000"/><path d="M102.7 39.845l-.105.018a8.86 8.86 0 01-1.443.125c-1.526 0-1.702-1.17-1.702-2.139v-.863c0-.967.176-2.141 1.702-2.141.537 0 1.125.065 1.446.126l.102.019v4.855zm.818.362v-5.58c0-.116 0-.125-.157-.162a9.868 9.868 0 00-2.209-.279c-2.085 0-2.523 1.471-2.523 2.8v.863c0 1.328.438 2.797 2.523 2.797.674 0 1.518-.105 2.207-.278.16-.035.16-.056.16-.161z" id="Fill-34" fill="#020000"/><path d="M116.395 37.354l-1.203-.728c-.595-.352-.9-.612-.9-1.042 0-.773.622-.727 1.258-.727.743 0 1.608.076 1.892.1h.025c.073 0 .084-.024.084-.083v-.407c0-.053-.01-.103-.125-.122a11.067 11.067 0 00-1.876-.159c-1.438 0-2.077.353-2.077 1.398 0 .641.362 1.15 1.179 1.652l1.227.739c.658.397.97.667.97 1.13 0 .883-.708.883-1.325.883-.45 0-1.349-.063-1.924-.135h-.034c-.03 0-.093.013-.093.06v.43c0 .029 0 .087.157.124.54.133 1.355.18 1.894.18.981 0 2.148-.175 2.148-1.543 0-.609-.213-1.115-1.277-1.75" id="Fill-36" fill="#020000"/><path d="M21.32 37.354l-1.201-.728c-.598-.352-.901-.61-.901-1.042 0-.773.62-.727 1.253-.727.744 0 1.612.076 1.895.1h.028c.065 0 .081-.018.081-.083v-.407c0-.053-.01-.103-.125-.122a11.076 11.076 0 00-1.879-.159c-1.435 0-2.074.353-2.074 1.398 0 .643.363 1.15 1.179 1.652l1.228.739c.656.396.973.667.973 1.13 0 .883-.711.883-1.328.883-.452 0-1.352-.063-1.925-.135h-.033c-.036 0-.094.015-.094.06v.43c0 .029 0 .087.16.124.535.133 1.352.18 1.892.18.98 0 2.148-.175 2.148-1.543 0-.609-.213-1.115-1.278-1.75" id="Fill-38" fill="#020000"/><path d="M13.008 37.884c0 1.407-.63 2.068-1.766 2.068-1.149 0-1.753-.641-1.753-2.068v-.934c0-1.428.604-2.068 1.753-2.068 1.136 0 1.766.661 1.766 2.068v.934zm.821-.934c0-1.828-.944-2.764-2.587-2.764-1.634 0-2.573.936-2.573 2.764v.934c0 1.828.939 2.762 2.573 2.762 1.643 0 2.587-.934 2.587-2.762v-.934z" id="Fill-40" fill="#020000"/><path d="M34.234 40.563h.63c.076 0 .098-.076.098-.12v-4.23c0-1.289-.742-2.027-2.04-2.027h-.28c-.718 0-1.17.125-1.497.412l-.086.072-.08-.072c-.325-.297-.745-.412-1.495-.412h-.281c-1.295 0-2.04.738-2.04 2.028v4.229c0 .044.02.12.095.12h.633c.072 0 .093-.076.093-.12v-4.23c0-1.106.487-1.33 1.219-1.33h.28c.791 0 1.166.143 1.166.961v4.599c0 .044.022.12.096.12h.634c.074 0 .093-.076.093-.12v-4.599c0-.818.378-.962 1.17-.962h.28c.73 0 1.217.225 1.217 1.332v4.229c0 .044.02.12.095.12" id="Fill-42" fill="#020000"/><path d="M4.101 40.368v-.444c0-.04-.027-.059-.082-.059h-.047a11.49 11.49 0 01-1.505.087c-.752 0-1.645-.264-1.645-2.055v-.96c0-1.793.893-2.055 1.645-2.055.563 0 .948.021 1.519.088l.033-.001c.055 0 .082-.02.082-.059v-.443c0-.106 0-.12-.14-.146a8.677 8.677 0 00-1.494-.134C.92 34.187 0 35.144 0 36.937v.96c0 1.791.921 2.75 2.467 2.75a8.54 8.54 0 001.494-.133c.14-.027.14-.052.14-.146" id="Fill-44" fill="#020000"/><path d="M53.318 40.368v-.444c0-.04-.025-.059-.08-.059h-.05a11.41 11.41 0 01-1.505.087c-.752 0-1.646-.264-1.646-2.055v-.96c0-1.793.894-2.055 1.646-2.055.566 0 .949.021 1.52.088l.035-.001c.055 0 .08-.02.08-.059v-.443c0-.106 0-.119-.14-.146a8.652 8.652 0 00-1.495-.134c-1.545 0-2.466.957-2.466 2.75v.96c0 1.791.921 2.75 2.466 2.75a8.51 8.51 0 001.495-.133c.14-.027.14-.053.14-.146" id="Fill-46" fill="#020000"/><g id="Group-50" transform="translate(39.45 33.931)"><mask id="mask-6" fill="#fff"><use xlink:href="#path-5"/></mask><path d="M.899 2.896c0-1.7.953-1.945 1.753-1.945 1.172 0 1.717.541 1.717 1.945v.237H.9v-.237zm4.108 3.455v-.42c0-.014 0-.045-.071-.045h-.061c-.506.08-1.406.135-2.165.135C1.458 6.021.9 5.477.9 4.003v-.3h4.193c.072 0 .108-.048.108-.143v-.664c0-1.75-.928-2.64-2.548-2.64-1.637 0-2.575.89-2.575 2.64v1.107c0 2.337 1.435 2.713 2.633 2.713.757 0 1.423-.063 2.154-.204.136-.028.143-.061.143-.16z" id="Fill-48" fill="#020000" mask="url(#mask-6)"/></g></g></g></g></g></g></g></g></g></svg>